<svg width="671.54884" height="517.60997" xmlns="http://www.w3.org/2000/svg" data-name="Layer 1">
 <g>
  <title>Layer 1</title>
  <g>
   <ellipse fill="#e6e6e6" ry="9" rx="118" cy="552.75472" cx="-109.64265"/>
   <path fill="#9f616a" transform="translate(-188.25 -180.384)" d="m116.82535,338.36669l-47.07583,-12.83886q18.85578,-17.793 16.40521,-33.5237l30.67062,0l0,46.36256z"/>
   <polygon fill="#2f2e41" points="-66.43164825439453,518.8981513977051 -81.63764190673828,521.0371589660645 -99.95565032958984,352.7061347961426 -129.19964599609375,520.324146270752 -144.8916473388672,521.0371589660645 -144.8916473388672,308.4831428527832 -47.88665008544922,308.4831428527832 -66.43164825439453,518.8981513977051 "/>
   <path fill="#2f2e41" transform="translate(-188.25 -180.384)" d="m51.25566,733.21523l0,0a10.69525,10.69525 0 0 0 10.60707,-7.816l1.11072,-16.57479l-2.23906,-11.75506c-5.90752,-4.85489 -11.87976,-4.75376 -17.91246,0l-1.92358,24.62194a10.69524,10.69524 0 0 0 10.35731,11.52391z"/>
   <path fill="#2f2e41" transform="translate(-188.25 -180.384)" d="m114.02343,733.21523l0,0a10.69525,10.69525 0 0 0 10.60707,-7.816l1.11072,-16.57479l-2.23905,-11.75506c-5.90753,-4.85489 -11.87976,-4.75376 -17.91247,0l-1.92359,24.62195a10.69525,10.69525 0 0 0 10.35732,11.5239z"/>
   <circle fill="#9f616a" r="27.10427" cy="106.62753" cx="-77.84407"/>
   <path fill="#e6e6e6" transform="translate(-188.25 -180.384)" d="m144.6429,492.43304l-103.42418,0c13.40488,-62.12418 13.36732,-112.15823 2.68969,-152.62266a10.81293,10.81293 0 0 1 6.57562,-12.85324l27.82474,-10.70182c8.35359,10.788 20.1417,15.5 38.51659,8.55924l14.58078,2.99093a14.98248,14.98248 0 0 1 11.957,15.66542c-1.07315,15.82559 -0.65,31.77226 -1.57328,45.538c-2.85916,42.62824 -4.09396,75.86033 2.85304,103.42413z"/>
   <path fill="#2f2e41" transform="translate(-188.25 -180.384)" d="m96.14053,251.34774s15.69194,-17.83176 34.237,-0.71327l4.99289,1.42654l-3.56635,2.85308s18.545,8.55924 17.11849,26.391c0,0 -2.85308,-0.71327 -4.27962,0s-2.13982,8.55924 -2.13982,8.55924s-2.13981,-5.70616 -2.85308,-6.41943s-10.699,7.846 -27.10426,-4.99289c0,0 -4.99289,12.83886 -10.699,11.41232s-13.55214,-0.71327 -17.11849,8.55925c-0.00009,-0.00001 -19.25838,-41.36968 11.41224,-47.07584z"/>
   <path fill="#9f616a" transform="translate(-188.25 -180.384)" d="m149.63579,476.74115l-9.15617,12.272a12.02693,12.02693 0 0 0 2.59424,16.93944l0,0a12.02693,12.02693 0 0 0 18.92117,-7.8472l2.61941,-16.37132l4.99291,-70.61382l-3.56635,-35.66351l-22.82465,8.55924l6.41944,30.67062l0,62.05455z"/>
   <path fill="#e6e6e6" transform="translate(-188.25 -180.384)" d="m140.36327,392.57522l27.81754,-12.83886l-1.42654,-10.10582a41.48828,41.48828 0 0 0 -26.4891,-38.68205l-8.46114,-3.28085l8.55924,64.90758z"/>
   <path fill="#9f616a" transform="translate(-188.25 -180.384)" d="m39.07891,473.88802l9.15617,12.272a12.02693,12.02693 0 0 1 -2.59424,16.93944l0,0a12.02693,12.02693 0 0 1 -18.92117,-7.8472l-2.61941,-16.37132l-4.99291,-70.61379l3.56635,-35.66351l22.82465,8.55924l-6.41944,30.67062l0,62.05452z"/>
   <path fill="#e6e6e6" transform="translate(-188.25 -180.384)" d="m48.35143,389.72215l-27.81754,-12.83886l1.42654,-10.10582a41.48828,41.48828 0 0 1 26.4891,-38.68205l8.46114,-3.28085l-8.55924,64.90758z"/>
   <path fill="#e6e6e6" transform="translate(-188.25 -180.384)" d="m776.60735,662.63843l-476,0a7.5082,7.5082 0 0 1 -7.5,-7.5l0,-207a7.5082,7.5082 0 0 1 7.5,-7.5l476,0a7.5082,7.5082 0 0 1 7.5,7.5l0,207a7.5082,7.5082 0 0 1 -7.5,7.5zm-476,-219a4.50492,4.50492 0 0 0 -4.5,4.5l0,207a4.50491,4.50491 0 0 0 4.5,4.5l476,0a4.50491,4.50491 0 0 0 4.5,-4.5l0,-207a4.50492,4.50492 0 0 0 -4.5,-4.5l-476,0z"/>
   <path fill="#e6e6e6" transform="translate(-188.25 -180.384)" d="m320.10735,466.13843a4.5,4.5 0 0 0 0,9l63,0a4.5,4.5 0 0 0 0,-9l-63,0z"/>
   <path fill="#e6e6e6" transform="translate(-188.25 -180.384)" d="m751.3977,497.43358l0,83.44957l-424.83077,0l0,-43.93766c2.94182,-1.88912 5.90143,-3.76937 8.88768,-5.58753c12.75379,-7.80481 26.40529,-15.10408 41.28325,-17.80921a62.31953,62.31953 0 0 1 21.31262,-0.26606c7.46567,1.23282 14.61134,3.80489 21.68594,6.38578c6.9768,2.55431 13.9714,5.18841 21.2682,6.66959a62.2716,62.2716 0 0 0 21.5704,0.4257c13.66035,-2.04876 26.49415,-7.53875 39.27457,-12.50543c12.86049,-4.99332 26.112,-9.7117 40.03011,-10.33255c13.74031,-0.62085 27.31181,2.62528 40.35,6.65184c26.58306,8.20394 53.726,20.37239 81.87329,12.02652c28.58273,-8.46112 54.87248,-32.8867 86.54811,-25.64059a1.19244,1.19244 0 0 1 0.7466,0.47003z"/>
   <path fill="#6a2fdf" transform="translate(-188.25 -180.384)" d="m751.3977,498.88815a1.28259,1.28259 0 0 1 -1.45455,0.63855a47.36842,47.36842 0 0 0 -11.5121,-1.18843c-31.15722,0.54988 -55.11271,25.63172 -85.57811,29.38339c-27.46769,3.37913 -53.32114,-9.97776 -79.148,-16.95775c-13.419,-3.62749 -27.25483,-5.55207 -41.06406,-3.08649c-13.70274,2.439 -26.563,8.0443 -39.4764,13.01992c-12.43452,4.78929 -25.35683,9.2416 -38.82014,9.46333c-14.80256,0.24831 -28.13287,-5.85365 -41.86225,-10.50106c-7.13963,-2.42125 -14.46553,-4.337 -22.03086,-4.52323a66.64492,66.64492 0 0 0 -21.71164,3.36138c-14.58971,4.63858 -27.7337,12.90455 -40.53188,21.11737a1.13679,1.13679 0 0 1 -0.75385,0.204a1.37378,1.37378 0 0 1 -0.58534,-2.50109l0.58534,-0.37255c2.93567,-1.88912 5.8891,-3.76937 8.86911,-5.58753c12.72717,-7.80481 26.35017,-15.10408 41.19707,-17.80921a62.06159,62.06159 0 0 1 21.26813,-0.26606c7.45008,1.23282 14.58083,3.80489 21.64067,6.38578c6.96223,2.55431 13.94222,5.18841 21.22379,6.66959a62.014,62.014 0 0 0 21.52537,0.4257c13.63183,-2.04876 26.43884,-7.53875 39.19258,-12.50543c12.83364,-4.99332 26.05747,-9.7117 39.94654,-10.33255c13.71162,-0.62085 27.25479,2.62528 40.26577,6.65184c26.52756,8.20394 53.61383,20.37239 81.70236,12.02652c28.52306,-8.46112 54.75793,-32.8867 86.36743,-25.64059a1.1897,1.1897 0 0 1 0.745,0.47a1.36658,1.36658 0 0 1 0.00002,1.4546z"/>
   <circle fill="#6a2fdf" r="6.20838" cy="333.98104" cx="196.85311"/>
   <circle fill="#6a2fdf" r="6.20838" cy="325.99883" cx="353.83651"/>
   <circle fill="#6a2fdf" r="6.20838" cy="318.01662" cx="545.40946"/>
   <path fill="#e6e6e6" transform="translate(-188.25 -180.384)" d="m381.60735,616.13843a4.5,4.5 0 0 0 0,9l63,0a4.5,4.5 0 0 0 0,-9l-63,0z"/>
   <circle fill="#6a2fdf" r="17" cy="439.75472" cx="152.85735"/>
   <path fill="#e6e6e6" transform="translate(-188.25 -180.384)" d="m533.60735,616.13843a4.5,4.5 0 0 0 0,9l63,0a4.5,4.5 0 0 0 0,-9l-63,0z"/>
   <circle fill="#6a2fdf" r="17" cy="439.75472" cx="304.85735"/>
   <path fill="#e6e6e6" transform="translate(-188.25 -180.384)" d="m685.60735,616.13843a4.5,4.5 0 0 0 0,9l63,0a4.5,4.5 0 0 0 0,-9l-63,0z"/>
   <circle fill="#6a2fdf" r="17" cy="439.75472" cx="456.85735"/>
   <path fill="#e6e6e6" transform="translate(-188.25 -180.384)" d="m744.02635,384.74785l-234.838,0c-4.578,0 -8.288,-2.643 -8.293,-5.9l0,-51.042c0.005,-3.257 3.715,-5.9 8.293,-5.9l234.838,0c4.578,0 8.288,2.643 8.293,5.9l0,51.041c-0.004,3.25701 -3.715,5.897 -8.293,5.901zm-234.838,-60.484c-2.747,0 -4.973,1.586 -4.976,3.54l0,51.041c0,1.954 2.229,3.538 4.976,3.54l234.838,0c2.747,0 4.973,-1.586 4.976,-3.54l0,-51.039c0,-1.954 -2.229,-3.538 -4.976,-3.54l-234.838,-0.002z" data-name="Path 78" id="svg_2"/>
   <path fill="#6a2fdf" transform="translate(-188.25 -180.384)" d="m562.2864,350.91302a5.00589,5.00589 0 0 0 -5,5l0,35a5.00589,5.00589 0 0 0 5,5l179,0a5.00589,5.00589 0 0 0 5,-5l0,-35a5.00588,5.00588 0 0 0 -5,-5l-179,0z"/>
   <circle fill="#fff" r="11" cy="193.5293" cx="399.0364"/>
   <path fill="#fff" transform="translate(-188.25 -180.384)" d="m637.41829,369.13843a4.5,4.5 0 0 0 0,9l63,0a4.5,4.5 0 0 0 0,-9l-63,0z"/>
   <path fill="#e6e6e6" transform="translate(-188.25 -180.384)" d="m568.02635,265.74785l-234.838,0c-4.578,0 -8.288,-2.643 -8.293,-5.9l0,-51.042c0.005,-3.257 3.715,-5.9 8.293,-5.9l234.838,0c4.578,0 8.288,2.643 8.293,5.9l0,51.041c-0.004,3.25701 -3.715,5.897 -8.293,5.901zm-234.838,-60.484c-2.747,0 -4.973,1.586 -4.976,3.54l0,51.041c0,1.954 2.229,3.538 4.976,3.54l234.838,0c2.747,0 4.973,-1.586 4.976,-3.54l0,-51.039c0,-1.954 -2.229,-3.538 -4.976,-3.54l-234.838,-0.002z" data-name="Path 78" id="svg_1"/>
   <path fill="#6a2fdf" transform="translate(-188.25 -180.384)" d="m386.2864,231.91302a5.00589,5.00589 0 0 0 -5,5l0,35a5.00589,5.00589 0 0 0 5,5l179,0a5.00589,5.00589 0 0 0 5,-5l0,-35a5.00588,5.00588 0 0 0 -5,-5l-179,0z"/>
   <circle fill="#fff" r="11" cy="74.5293" cx="223.0364"/>
   <path fill="#fff" transform="translate(-188.25 -180.384)" d="m461.41829,250.13843a4.5,4.5 0 0 0 0,9l63,0a4.5,4.5 0 0 0 0,-9l-63,0z"/>
  </g>
 </g>

</svg>